<svg width="243" height="67" viewBox="0 0 243 67" fill="none" xmlns="http://www.w3.org/2000/svg">
<path d="M7.41797 8.94629V7.43457L12.876 7.42578V12.207C12.0381 12.875 11.1738 13.3789 10.2832 13.7188C9.39258 14.0527 8.47852 14.2197 7.54102 14.2197C6.27539 14.2197 5.12402 13.9502 4.08691 13.4111C3.05566 12.8662 2.27637 12.0811 1.74902 11.0557C1.22168 10.0303 0.958008 8.88477 0.958008 7.61914C0.958008 6.36523 1.21875 5.19629 1.74023 4.1123C2.26758 3.02246 3.02344 2.21387 4.00781 1.68652C4.99219 1.15918 6.12598 0.895508 7.40918 0.895508C8.34082 0.895508 9.18164 1.04785 9.93164 1.35254C10.6875 1.65137 11.2793 2.07031 11.707 2.60938C12.1348 3.14844 12.46 3.85156 12.6826 4.71875L11.1445 5.14062C10.9512 4.48438 10.7109 3.96875 10.4238 3.59375C10.1367 3.21875 9.72656 2.91992 9.19336 2.69727C8.66016 2.46875 8.06836 2.35449 7.41797 2.35449C6.63867 2.35449 5.96484 2.47461 5.39648 2.71484C4.82812 2.94922 4.36816 3.25977 4.0166 3.64648C3.6709 4.0332 3.40137 4.45801 3.20801 4.9209C2.87988 5.71777 2.71582 6.58203 2.71582 7.51367C2.71582 8.66211 2.91211 9.62305 3.30469 10.3965C3.70312 11.1699 4.28027 11.7441 5.03613 12.1191C5.79199 12.4941 6.59473 12.6816 7.44434 12.6816C8.18262 12.6816 8.90332 12.541 9.60645 12.2598C10.3096 11.9727 10.8428 11.668 11.2061 11.3457V8.94629H7.41797ZM13.9834 14L18.9316 1.11523H20.7686L26.042 14H24.0996L22.5967 10.0977H17.209L15.7939 14H13.9834ZM17.7012 8.70898H22.0693L20.7246 5.14062C20.3145 4.05664 20.0098 3.16602 19.8105 2.46875C19.6465 3.29492 19.415 4.11523 19.1162 4.92969L17.7012 8.70898ZM27.3516 14V1.11523H29.918L32.9678 10.2383C33.249 11.0879 33.4541 11.7236 33.583 12.1455C33.7295 11.6768 33.958 10.9883 34.2686 10.0801L37.3535 1.11523H39.6475V14H38.0039V3.21582L34.2598 14H32.7217L28.9951 3.03125V14H27.3516ZM42.4336 14V1.11523H51.75V2.63574H44.1387V6.58203H51.2666V8.09375H44.1387V12.4795H52.0488V14H42.4336ZM58.8955 7.72461C58.8955 5.58594 59.4697 3.91309 60.6182 2.70605C61.7666 1.49316 63.249 0.886719 65.0654 0.886719C66.2549 0.886719 67.3271 1.1709 68.2822 1.73926C69.2373 2.30762 69.9639 3.10156 70.4619 4.12109C70.9658 5.13477 71.2178 6.28613 71.2178 7.5752C71.2178 8.88184 70.9541 10.0508 70.4268 11.082C69.8994 12.1133 69.1523 12.8955 68.1855 13.4287C67.2188 13.9561 66.1758 14.2197 65.0566 14.2197C63.8438 14.2197 62.7598 13.9268 61.8047 13.3408C60.8496 12.7549 60.126 11.9551 59.6338 10.9414C59.1416 9.92773 58.8955 8.85547 58.8955 7.72461ZM60.6533 7.75098C60.6533 9.30371 61.0693 10.5283 61.9014 11.4248C62.7393 12.3154 63.7881 12.7607 65.0479 12.7607C66.3311 12.7607 67.3857 12.3096 68.2119 11.4072C69.0439 10.5049 69.46 9.22461 69.46 7.56641C69.46 6.51758 69.2812 5.60352 68.9238 4.82422C68.5723 4.03906 68.0537 3.43262 67.3682 3.00488C66.6885 2.57129 65.9238 2.35449 65.0742 2.35449C63.8672 2.35449 62.8271 2.77051 61.9541 3.60254C61.0869 4.42871 60.6533 5.81152 60.6533 7.75098ZM77.1064 14L72.1143 1.11523H73.96L77.3086 10.4756C77.5781 11.2256 77.8037 11.9287 77.9854 12.585C78.1846 11.8818 78.416 11.1787 78.6797 10.4756L82.1602 1.11523H83.9004L78.8555 14H77.1064ZM85.4648 14V1.11523H94.7812V2.63574H87.1699V6.58203H94.2979V8.09375H87.1699V12.4795H95.0801V14H85.4648ZM97.4619 14V1.11523H103.175C104.323 1.11523 105.196 1.23242 105.794 1.4668C106.392 1.69531 106.869 2.10254 107.227 2.68848C107.584 3.27441 107.763 3.92188 107.763 4.63086C107.763 5.54492 107.467 6.31543 106.875 6.94238C106.283 7.56934 105.369 7.96777 104.133 8.1377C104.584 8.35449 104.927 8.56836 105.161 8.7793C105.659 9.23633 106.131 9.80762 106.576 10.4932L108.817 14H106.673L104.968 11.3193C104.47 10.5459 104.06 9.9541 103.737 9.54395C103.415 9.13379 103.125 8.84668 102.867 8.68262C102.615 8.51855 102.357 8.4043 102.094 8.33984C101.9 8.29883 101.584 8.27832 101.145 8.27832H99.167V14H97.4619ZM99.167 6.80176H102.832C103.611 6.80176 104.221 6.72266 104.66 6.56445C105.1 6.40039 105.434 6.14258 105.662 5.79102C105.891 5.43359 106.005 5.04688 106.005 4.63086C106.005 4.02148 105.782 3.52051 105.337 3.12793C104.897 2.73535 104.2 2.53906 103.245 2.53906H99.167V6.80176ZM114.064 9.97461V8.7002H132.064V9.97461H114.064ZM142.479 6.59082V8.11133H147.27C147.205 9.55859 146.804 10.7012 146.065 11.5391C145.327 12.3711 144.381 12.7871 143.227 12.7871C141.176 12.7871 139.89 11.6973 139.368 9.51758L137.725 9.94824C138.469 12.7959 140.262 14.2197 143.104 14.2197C145.137 14.2197 146.648 13.5664 147.639 12.2598C148.635 10.9473 149.101 9.33301 149.036 7.41699C149.036 6.24512 148.813 5.17578 148.368 4.20898C147.929 3.24219 147.252 2.44824 146.338 1.82715C145.424 1.20605 144.334 0.895508 143.068 0.895508C141.732 0.895508 140.613 1.22656 139.711 1.88867C138.814 2.55078 138.208 3.4707 137.892 4.64844L139.562 5.08789C140.048 3.28906 141.22 2.38965 143.077 2.38965C144.331 2.38965 145.312 2.76758 146.021 3.52344C146.736 4.2793 147.129 5.30176 147.199 6.59082H142.479ZM154.679 14V2.63574H150.434V1.11523H160.646V2.63574H156.384V14H154.679ZM161.077 7.72461C161.077 5.58594 161.651 3.91309 162.8 2.70605C163.948 1.49316 165.431 0.886719 167.247 0.886719C168.437 0.886719 169.509 1.1709 170.464 1.73926C171.419 2.30762 172.146 3.10156 172.644 4.12109C173.147 5.13477 173.399 6.28613 173.399 7.5752C173.399 8.88184 173.136 10.0508 172.608 11.082C172.081 12.1133 171.334 12.8955 170.367 13.4287C169.4 13.9561 168.357 14.2197 167.238 14.2197C166.025 14.2197 164.941 13.9268 163.986 13.3408C163.031 12.7549 162.308 11.9551 161.815 10.9414C161.323 9.92773 161.077 8.85547 161.077 7.72461ZM162.835 7.75098C162.835 9.30371 163.251 10.5283 164.083 11.4248C164.921 12.3154 165.97 12.7607 167.229 12.7607C168.513 12.7607 169.567 12.3096 170.394 11.4072C171.226 10.5049 171.642 9.22461 171.642 7.56641C171.642 6.51758 171.463 5.60352 171.105 4.82422C170.754 4.03906 170.235 3.43262 169.55 3.00488C168.87 2.57129 168.105 2.35449 167.256 2.35449C166.049 2.35449 165.009 2.77051 164.136 3.60254C163.269 4.42871 162.835 5.81152 162.835 7.75098ZM180.562 14V1.11523H183.129L186.179 10.2383C186.46 11.0879 186.665 11.7236 186.794 12.1455C186.94 11.6768 187.169 10.9883 187.479 10.0801L190.564 1.11523H192.858V14H191.215V3.21582L187.471 14H185.933L182.206 3.03125V14H180.562ZM195.645 14V1.11523H204.961V2.63574H197.35V6.58203H204.478V8.09375H197.35V12.4795H205.26V14H195.645ZM216.809 9.48242L218.514 9.91309C218.156 11.3135 217.512 12.3828 216.58 13.1211C215.654 13.8535 214.521 14.2197 213.179 14.2197C211.79 14.2197 210.659 13.9385 209.786 13.376C208.919 12.8076 208.257 11.9873 207.8 10.915C207.349 9.84277 207.123 8.69141 207.123 7.46094C207.123 6.11914 207.378 4.9502 207.888 3.9541C208.403 2.95215 209.133 2.19336 210.076 1.67773C211.025 1.15625 212.068 0.895508 213.205 0.895508C214.494 0.895508 215.578 1.22363 216.457 1.87988C217.336 2.53613 217.948 3.45898 218.294 4.64844L216.615 5.04395C216.316 4.10645 215.883 3.42383 215.314 2.99609C214.746 2.56836 214.031 2.35449 213.17 2.35449C212.18 2.35449 211.351 2.5918 210.683 3.06641C210.021 3.54102 209.555 4.17969 209.285 4.98242C209.016 5.7793 208.881 6.60254 208.881 7.45215C208.881 8.54785 209.039 9.50586 209.355 10.3262C209.678 11.1406 210.176 11.75 210.85 12.1543C211.523 12.5586 212.253 12.7607 213.038 12.7607C213.993 12.7607 214.802 12.4854 215.464 11.9346C216.126 11.3838 216.574 10.5664 216.809 9.48242ZM223.304 14V2.63574H219.059V1.11523H229.271V2.63574H225.009V14H223.304ZM229.702 7.72461C229.702 5.58594 230.276 3.91309 231.425 2.70605C232.573 1.49316 234.056 0.886719 235.872 0.886719C237.062 0.886719 238.134 1.1709 239.089 1.73926C240.044 2.30762 240.771 3.10156 241.269 4.12109C241.772 5.13477 242.024 6.28613 242.024 7.5752C242.024 8.88184 241.761 10.0508 241.233 11.082C240.706 12.1133 239.959 12.8955 238.992 13.4287C238.025 13.9561 236.982 14.2197 235.863 14.2197C234.65 14.2197 233.566 13.9268 232.611 13.3408C231.656 12.7549 230.933 11.9551 230.44 10.9414C229.948 9.92773 229.702 8.85547 229.702 7.72461ZM231.46 7.75098C231.46 9.30371 231.876 10.5283 232.708 11.4248C233.546 12.3154 234.595 12.7607 235.854 12.7607C237.138 12.7607 238.192 12.3096 239.019 11.4072C239.851 10.5049 240.267 9.22461 240.267 7.56641C240.267 6.51758 240.088 5.60352 239.73 4.82422C239.379 4.03906 238.86 3.43262 238.175 3.00488C237.495 2.57129 236.73 2.35449 235.881 2.35449C234.674 2.35449 233.634 2.77051 232.761 3.60254C231.894 4.42871 231.46 5.81152 231.46 7.75098ZM1.44141 40V27.1152H3.14648V32.4062H9.84375V27.1152H11.5488V40H9.84375V33.9268H3.14648V40H1.44141ZM14.4316 40V27.1152H23.748V28.6357H16.1367V32.582H23.2646V34.0938H16.1367V38.4795H24.0469V40H14.4316ZM25.2949 36.3613L26.9209 35.9395C27.0439 36.5664 27.3721 37.1934 27.9053 37.8203C28.4443 38.4473 29.1562 38.7607 30.041 38.7607C30.9434 38.7607 31.6553 38.5293 32.1768 38.0664C32.6982 37.6035 32.959 37.0439 32.959 36.3877C32.959 35.6787 32.6836 35.1162 32.1328 34.7002C31.582 34.2783 30.832 34.0674 29.8828 34.0674H29.0654V32.582C29.8506 32.582 30.4512 32.5381 30.8672 32.4502C31.2832 32.3564 31.6494 32.125 31.9658 31.7559C32.2881 31.3809 32.4492 30.9561 32.4492 30.4814C32.4492 29.9189 32.2295 29.4297 31.79 29.0137C31.3564 28.5977 30.7676 28.3896 30.0234 28.3896C29.373 28.3896 28.8164 28.5537 28.3535 28.8818C27.8965 29.2041 27.5801 29.6348 27.4043 30.1738C27.2285 30.707 27.1406 31.1055 27.1406 31.3691L25.5059 31C25.9102 28.2637 27.4219 26.8955 30.041 26.8955C31.3008 26.8955 32.2998 27.2471 33.0381 27.9502C33.7764 28.6475 34.1455 29.4648 34.1455 30.4023C34.1455 31.6035 33.5771 32.5352 32.4404 33.1973C33.0967 33.3789 33.6445 33.751 34.084 34.3135C34.5293 34.8701 34.752 35.5381 34.752 36.3174C34.752 37.4248 34.3213 38.3535 33.46 39.1035C32.6045 39.8477 31.4678 40.2197 30.0498 40.2197C27.6123 40.2197 26.0273 38.9336 25.2949 36.3613ZM35.4639 40L40.4121 27.1152H42.249L47.5225 40H45.5801L44.0771 36.0977H38.6895L37.2744 40H35.4639ZM39.1816 34.709H43.5498L42.2051 31.1406C41.7949 30.0566 41.4902 29.166 41.291 28.4688C41.127 29.2949 40.8955 30.1152 40.5967 30.9297L39.1816 34.709ZM48.9639 27.1152H57.3223V28.6357H50.6689V32.6084H53.7451C54.8818 32.6084 55.7842 32.7168 56.4521 32.9336C57.126 33.1504 57.665 33.5605 58.0693 34.1641C58.4736 34.7617 58.6758 35.459 58.6758 36.2559C58.6758 36.9062 58.5293 37.5156 58.2363 38.084C57.9492 38.6465 57.5186 39.1064 56.9443 39.4639C56.3701 39.8213 55.3916 40 54.0088 40H48.9639V27.1152ZM50.6689 38.5498H54.0791C54.999 38.5498 55.6875 38.3623 56.1445 37.9873C56.6074 37.6123 56.8389 37.0498 56.8389 36.2998C56.8389 35.7666 56.707 35.3213 56.4434 34.9639C56.1797 34.6064 55.8135 34.3691 55.3447 34.252C54.876 34.1348 54.0762 34.0762 52.9453 34.0762H50.6689V38.5498ZM60.7852 27.1152H62.4902V32.6172H65.5664C67.582 32.6172 68.9062 32.9893 69.5391 33.7334C70.1777 34.4775 70.4971 35.3213 70.4971 36.2646C70.4971 37.2607 70.1572 38.1338 69.4775 38.8838C68.7979 39.6279 67.5352 40 65.6895 40H60.7852V27.1152ZM62.4902 38.5498H65.6104C66.6826 38.5498 67.459 38.3711 67.9395 38.0137C68.4258 37.6504 68.6689 37.0732 68.6689 36.2822C68.6689 35.7432 68.5225 35.292 68.2295 34.9287C67.9365 34.5654 67.5586 34.334 67.0957 34.2344C66.6328 34.1348 65.8594 34.085 64.7754 34.085H62.4902V38.5498ZM72.0439 27.1152H73.749V40H72.0439V27.1152ZM76.5703 40V27.1152H81.4043C82.3887 27.1152 83.1768 27.2471 83.7686 27.5107C84.3662 27.7686 84.832 28.1699 85.166 28.7148C85.5059 29.2539 85.6758 29.8193 85.6758 30.4111C85.6758 30.9619 85.5264 31.4805 85.2275 31.9668C84.9287 32.4531 84.4775 32.8457 83.874 33.1445C84.6533 33.373 85.251 33.7627 85.667 34.3135C86.0889 34.8643 86.2998 35.5146 86.2998 36.2646C86.2998 36.8682 86.1709 37.4307 85.9131 37.9521C85.6611 38.4678 85.3477 38.8662 84.9727 39.1475C84.5977 39.4287 84.126 39.6426 83.5576 39.7891C82.9951 39.9297 82.3037 40 81.4834 40H76.5703ZM78.2754 32.5293H81.0615C81.8174 32.5293 82.3594 32.4795 82.6875 32.3799C83.1211 32.251 83.4463 32.0371 83.6631 31.7383C83.8857 31.4395 83.9971 31.0645 83.9971 30.6133C83.9971 30.1855 83.8945 29.8105 83.6895 29.4883C83.4844 29.1602 83.1914 28.9375 82.8105 28.8203C82.4297 28.6973 81.7764 28.6357 80.8506 28.6357H78.2754V32.5293ZM78.2754 38.4795H81.4834C82.0342 38.4795 82.4209 38.459 82.6436 38.418C83.0361 38.3477 83.3643 38.2305 83.6279 38.0664C83.8916 37.9023 84.1084 37.665 84.2783 37.3545C84.4482 37.0381 84.5332 36.6748 84.5332 36.2646C84.5332 35.7842 84.4102 35.3682 84.1641 35.0166C83.918 34.6592 83.5752 34.4102 83.1357 34.2695C82.7021 34.123 82.0752 34.0498 81.2549 34.0498H78.2754V38.4795ZM86.6338 40L91.582 27.1152H93.4189L98.6924 40H96.75L95.2471 36.0977H89.8594L88.4443 40H86.6338ZM90.3516 34.709H94.7197L93.375 31.1406C92.9648 30.0566 92.6602 29.166 92.4609 28.4688C92.2969 29.2949 92.0654 30.1152 91.7666 30.9297L90.3516 34.709ZM100.09 40V27.1152H109.406V28.6357H101.795V32.582H108.923V34.0938H101.795V38.4795H109.705V40H100.09ZM112.008 40V27.1152H114.574L117.624 36.2383C117.905 37.0879 118.11 37.7236 118.239 38.1455C118.386 37.6768 118.614 36.9883 118.925 36.0801L122.01 27.1152H124.304V40H122.66V29.2158L118.916 40H117.378L113.651 29.0312V40H112.008ZM127.143 27.1152H128.848V32.6172H131.924C133.939 32.6172 135.264 32.9893 135.896 33.7334C136.535 34.4775 136.854 35.3213 136.854 36.2646C136.854 37.2607 136.515 38.1338 135.835 38.8838C135.155 39.6279 133.893 40 132.047 40H127.143V27.1152ZM128.848 38.5498H131.968C133.04 38.5498 133.816 38.3711 134.297 38.0137C134.783 37.6504 135.026 37.0732 135.026 36.2822C135.026 35.7432 134.88 35.292 134.587 34.9287C134.294 34.5654 133.916 34.334 133.453 34.2344C132.99 34.1348 132.217 34.085 131.133 34.085H128.848V38.5498ZM138.401 27.1152H140.106V40H138.401V27.1152ZM141.688 40L146.672 33.2852L142.277 27.1152H144.308L146.646 30.4199C147.132 31.1055 147.478 31.6328 147.683 32.002C147.97 31.5332 148.31 31.0439 148.702 30.5342L151.295 27.1152H153.149L148.623 33.1885L153.501 40H151.392L148.148 35.4033C147.967 35.1396 147.779 34.8525 147.586 34.542C147.299 35.0107 147.094 35.333 146.971 35.5088L143.736 40H141.688ZM1.31836 66V53.1152H6.15234C7.13672 53.1152 7.9248 53.2471 8.5166 53.5107C9.11426 53.7686 9.58008 54.1699 9.91406 54.7148C10.2539 55.2539 10.4238 55.8193 10.4238 56.4111C10.4238 56.9619 10.2744 57.4805 9.97559 57.9668C9.67676 58.4531 9.22559 58.8457 8.62207 59.1445C9.40137 59.373 9.99902 59.7627 10.415 60.3135C10.8369 60.8643 11.0479 61.5146 11.0479 62.2646C11.0479 62.8682 10.9189 63.4307 10.6611 63.9521C10.4092 64.4678 10.0957 64.8662 9.7207 65.1475C9.3457 65.4287 8.87402 65.6426 8.30566 65.7891C7.74316 65.9297 7.05176 66 6.23145 66H1.31836ZM3.02344 58.5293H5.80957C6.56543 58.5293 7.10742 58.4795 7.43555 58.3799C7.86914 58.251 8.19434 58.0371 8.41113 57.7383C8.63379 57.4395 8.74512 57.0645 8.74512 56.6133C8.74512 56.1855 8.64258 55.8105 8.4375 55.4883C8.23242 55.1602 7.93945 54.9375 7.55859 54.8203C7.17773 54.6973 6.52441 54.6357 5.59863 54.6357H3.02344V58.5293ZM3.02344 64.4795H6.23145C6.78223 64.4795 7.16895 64.459 7.3916 64.418C7.78418 64.3477 8.1123 64.2305 8.37598 64.0664C8.63965 63.9023 8.85645 63.665 9.02637 63.3545C9.19629 63.0381 9.28125 62.6748 9.28125 62.2646C9.28125 61.7842 9.1582 61.3682 8.91211 61.0166C8.66602 60.6592 8.32324 60.4102 7.88379 60.2695C7.4502 60.123 6.82324 60.0498 6.00293 60.0498H3.02344V64.4795ZM13.4121 53.1152H23.5459V66H21.832V54.6357H15.1172V66H13.4121V53.1152ZM26.3672 66V53.1152H35.6836V54.6357H28.0723V58.582H35.2002V60.0938H28.0723V64.4795H35.9824V66H26.3672ZM47.5312 66H45.8262V60.8057C44.2969 61.374 42.958 61.6582 41.8096 61.6582C40.9131 61.6582 40.1221 61.4502 39.4365 61.0342C38.751 60.6123 38.291 60.0791 38.0566 59.4346C37.8281 58.79 37.7139 57.9463 37.7139 56.9033V53.1152H39.4189V56.7451C39.4189 58.1514 39.6738 59.0771 40.1836 59.5225C40.6992 59.9619 41.3174 60.1816 42.0381 60.1816C43.2393 60.1816 44.502 59.915 45.8262 59.3818V53.1152H47.5312V66ZM48.9287 66L53.877 53.1152H55.7139L60.9873 66H59.0449L57.542 62.0977H52.1543L50.7393 66H48.9287ZM52.6465 60.709H57.0146L55.6699 57.1406C55.2598 56.0566 54.9551 55.166 54.7559 54.4688C54.5918 55.2949 54.3604 56.1152 54.0615 56.9297L52.6465 60.709ZM64.2217 66V54.6357H59.9766V53.1152H70.1895V54.6357H65.9268V66H64.2217ZM72.4834 53.1152H80.5518V66H78.8467V54.6357H74.1885V61.2715C74.1885 62.6191 74.124 63.6064 73.9951 64.2334C73.8721 64.8604 73.6084 65.3496 73.2041 65.7012C72.7998 66.0469 72.2871 66.2197 71.666 66.2197C71.291 66.2197 70.8398 66.1494 70.3125 66.0088L70.6025 64.4971C70.8838 64.6143 71.124 64.6729 71.3232 64.6729C71.71 64.6729 72 64.5293 72.1934 64.2422C72.3867 63.9492 72.4834 63.2637 72.4834 62.1855V53.1152ZM83.3906 66V53.1152H92.707V54.6357H85.0957V58.582H92.2236V60.0938H85.0957V64.4795H93.0059V66H83.3906ZM95.4141 66V53.1152H97.1191V58.4062H103.816V53.1152H105.521V66H103.816V59.9268H97.1191V66H95.4141ZM108.396 53.1152H109.942V63.3193L116.798 53.1152H118.512V66H116.965V55.8223L110.101 66H108.396V53.1152ZM121.333 53.1152H122.88V63.3193L129.735 53.1152H131.449V66H129.902V55.8223L123.038 66H121.333V53.1152ZM127.74 50.0479H128.821C128.733 50.7803 128.464 51.3428 128.013 51.7354C127.567 52.1279 126.973 52.3242 126.229 52.3242C125.479 52.3242 124.878 52.1309 124.427 51.7441C123.981 51.3516 123.715 50.7861 123.627 50.0479H124.708C124.79 50.4463 124.951 50.7451 125.191 50.9443C125.438 51.1377 125.766 51.2344 126.176 51.2344C126.65 51.2344 127.008 51.1406 127.248 50.9531C127.494 50.7598 127.658 50.458 127.74 50.0479Z" fill="white"/>
<path d="M138.349 52.8955H142.172V55.8398C142.172 56.9238 141.946 57.7822 141.495 58.415C141.044 59.042 140.273 59.5928 139.184 60.0674L138.349 58.5029C139.028 58.1865 139.494 57.873 139.746 57.5625C140.004 57.2461 140.147 56.874 140.177 56.4463H138.349V52.8955ZM142.805 52.8955H146.628V55.8398C146.628 56.9238 146.402 57.7822 145.951 58.415C145.5 59.042 144.729 59.5928 143.64 60.0674L142.805 58.5029C143.484 58.1865 143.95 57.873 144.202 57.5625C144.46 57.2461 144.604 56.874 144.633 56.4463H142.805V52.8955Z" fill="#6C0287"/>
</svg>
